<?xml version="1.0" encoding="UTF-8" standalone="no" ?>
<!DOCTYPE svg PUBLIC "-//W3C//DTD SVG 1.1//EN" "http://www.w3.org/Graphics/SVG/1.1/DTD/svg11.dtd">
<svg xmlns="http://www.w3.org/2000/svg" xmlns:xlink="http://www.w3.org/1999/xlink" version="1.1" width="1080" height="1080" viewBox="0 0 1080 1080" xml:space="preserve">
<desc>Created with Fabric.js 5.2.4</desc>
<defs>
</defs>
<g transform="matrix(1 0 0 1 540 540)" id="571b056a-775d-4795-b75f-717ba68196b9"  >
<rect style="stroke: none; stroke-width: 1; stroke-dasharray: none; stroke-linecap: butt; stroke-dashoffset: 0; stroke-linejoin: miter; stroke-miterlimit: 4; fill: rgb(255,255,255); fill-rule: nonzero; opacity: 1; visibility: hidden;" vector-effect="non-scaling-stroke"  x="-540" y="-540" rx="0" ry="0" width="1080" height="1080" />
</g>
<g transform="matrix(1 0 0 1 540 540)" id="722a607f-b61e-4636-a11a-e491ea4a998b"  >
</g>
<g transform="matrix(1.55 0 0 1.55 540.6 539.55)"  >
<g style="" vector-effect="non-scaling-stroke"   >
		<g transform="matrix(1 0 0 1 0 0)" id="container"  >
</g>
		<g transform="matrix(1 0 0 1 0 0)" id="icon_container"  >
</g>
		<g transform="matrix(1.13 0 0 1.13 -152.01 72.89)" id="path298424"  >
<path style="stroke: rgb(16,30,25); stroke-width: 0; stroke-dasharray: none; stroke-linecap: butt; stroke-dashoffset: 0; stroke-linejoin: miter; stroke-miterlimit: 2; fill: rgb(16,30,25); fill-rule: nonzero; opacity: 1;" vector-effect="non-scaling-stroke"  transform=" translate(-390.38, 12.48)" d="M 395.63025 -24.16 C 394.35025 -24.896 392.81425 -25.28 390.99025 -25.28 C 389.29425 -25.28 387.75825 -24.992 386.41425 -24.48 C 385.07025 -23.968 383.98224999999996 -23.2 383.21425 -22.208000000000002 C 382.44625 -21.216 382.06225 -20.032000000000004 382.06225 -18.688000000000002 C 382.06225 -16.736000000000004 382.79825 -15.104000000000003 384.33425 -13.824000000000002 C 385.83825 -12.544000000000002 387.91825 -11.776000000000002 390.57425 -11.520000000000001 C 392.49425 -11.328000000000001 393.90225 -10.784 394.86225 -9.920000000000002 C 395.79025 -9.056000000000001 396.27025000000003 -8.032000000000002 396.27025000000003 -6.816000000000002 C 396.27025000000003 -5.536000000000001 395.69425 -4.512000000000002 394.60625000000005 -3.7760000000000016 C 393.48625000000004 -3.040000000000002 392.14225000000005 -2.6880000000000015 390.54225 -2.6880000000000015 C 389.16625000000005 -2.6880000000000015 387.91825 -2.9760000000000013 386.79825 -3.5520000000000014 C 385.64625 -4.128000000000001 384.91025 -4.832000000000002 384.52625 -5.6640000000000015 C 384.36625 -5.984000000000002 384.14225 -6.272000000000001 383.82225 -6.464000000000001 C 383.50225 -6.6560000000000015 383.18225 -6.784000000000002 382.86225 -6.784000000000002 C 382.70225 -6.784000000000002 382.60625000000005 -6.752000000000002 382.54225 -6.752000000000002 C 382.12625 -6.6560000000000015 381.80625000000003 -6.496000000000001 381.58225000000004 -6.240000000000002 C 381.3262500000001 -5.984000000000002 381.23025000000007 -5.7280000000000015 381.23025000000007 -5.408000000000002 C 381.23025000000007 -5.216000000000002 381.26225000000005 -5.024000000000002 381.3902500000001 -4.7680000000000025 C 382.0302500000001 -3.2320000000000024 383.18225000000007 -2.0160000000000027 384.8782500000001 -1.0880000000000023 C 386.5742500000001 -0.12800000000000233 388.4622500000001 0.3199999999999976 390.5422500000001 0.3199999999999976 C 392.11025000000006 0.3199999999999976 393.5822500000001 0.06399999999999761 394.9582500000001 -0.4800000000000024 C 396.33425000000005 -1.0240000000000025 397.45425000000006 -1.8560000000000023 398.28625000000005 -2.9440000000000026 C 399.11825000000005 -4.032000000000003 399.53425000000004 -5.376000000000003 399.53425000000004 -6.912000000000003 C 399.53425000000004 -9.024000000000003 398.83025000000004 -10.720000000000002 397.42225 -12.000000000000004 C 396.01425 -13.280000000000003 394.03025 -14.080000000000004 391.47025 -14.336000000000004 C 389.16625000000005 -14.560000000000004 387.56625 -15.040000000000004 386.67025 -15.808000000000003 C 385.77425 -16.544000000000004 385.32625 -17.472000000000005 385.32625 -18.592000000000002 C 385.32625 -19.776000000000003 385.80625000000003 -20.672000000000004 386.83025000000004 -21.312 C 387.82225000000005 -21.952 389.13425 -22.272000000000002 390.76625 -22.272000000000002 C 392.07825 -22.272000000000002 393.16625 -22.016000000000002 394.03025 -21.504 C 394.89425 -20.992 395.63025000000005 -20.288 396.20625 -19.328000000000003 C 396.33425 -19.040000000000003 396.55825 -18.816000000000003 396.84625 -18.656000000000002 C 397.10224999999997 -18.496000000000002 397.42225 -18.432000000000002 397.74225 -18.432000000000002 C 398.06225 -18.432000000000002 398.31825000000003 -18.496000000000002 398.57425 -18.656000000000002 C 398.99025 -18.944000000000003 399.21425 -19.328000000000003 399.21425 -19.808000000000003 C 399.21425 -20.160000000000004 399.08625 -20.544000000000004 398.83025 -20.960000000000004 C 397.93424999999996 -22.336000000000006 396.87825 -23.392000000000003 395.63025 -24.160000000000004 z" stroke-linecap="round" />
</g>
		<g transform="matrix(1.13 0 0 1.13 -124.08 81.26)" id="path298426"  >
<path style="stroke: rgb(16,30,25); stroke-width: 0; stroke-dasharray: none; stroke-linecap: butt; stroke-dashoffset: 0; stroke-linejoin: miter; stroke-miterlimit: 2; fill: rgb(16,30,25); fill-rule: nonzero; opacity: 1;" vector-effect="non-scaling-stroke"  transform=" translate(-413.1, 5.07)" d="M 421.91825 -8.736 C 421.91825 -10.4 421.53425 -11.904 420.76625 -13.248000000000001 C 419.99825000000004 -14.592 418.91025 -15.680000000000001 417.56625 -16.448 C 416.22225000000003 -17.216 414.71825 -17.632 413.08625 -17.632 L 412.95825 -17.632 L 412.89425 -17.632 L 405.82225 -17.632 C 405.37425 -17.632 405.02225 -17.472 404.73425 -17.184 C 404.41425 -16.864 404.28625 -16.512 404.28625 -16.096 L 404.28625 -9.280000000000001 L 404.28625 -8.736 L 404.28625 5.856 C 404.28625 6.368 404.41425 6.752 404.73425 7.04 C 405.02225 7.36 405.40625 7.488 405.91825 7.488 C 406.36625 7.488 406.75025 7.36 407.07025 7.04 C 407.39025 6.752 407.55025 6.368 407.55025 5.856 L 407.55025 -2.7840000000000007 C 408.28625 -1.8560000000000008 409.18225 -1.1520000000000008 410.27025000000003 -0.6400000000000006 C 411.32625 -0.12800000000000056 412.47825000000006 0.12799999999999945 413.72625000000005 0.12799999999999945 C 415.26225000000005 0.12799999999999945 416.63825 -0.25600000000000056 417.8862500000001 -1.0240000000000005 C 419.13425000000007 -1.7920000000000005 420.1262500000001 -2.8480000000000008 420.8302500000001 -4.192 C 421.5342500000001 -5.5360000000000005 421.9182500000001 -7.072 421.9182500000001 -8.736 z M 418.78225 -8.736 C 418.78225 -7.5840000000000005 418.52625 -6.5600000000000005 418.01425 -5.664000000000001 C 417.50225 -4.768000000000001 416.83025 -4.032000000000001 415.96625 -3.5200000000000005 C 415.10225 -3.0080000000000005 414.14225 -2.7520000000000007 413.08625 -2.7520000000000007 C 411.99825 -2.7520000000000007 411.03825 -3.008000000000001 410.17425000000003 -3.5200000000000005 C 409.31025000000005 -4.032 408.63825 -4.768000000000001 408.15825 -5.664000000000001 C 407.64625 -6.5600000000000005 407.42225 -7.5840000000000005 407.42225 -8.736 C 407.42225 -9.856000000000002 407.64625 -10.88 408.15825 -11.808 C 408.63825 -12.704 409.31025 -13.44 410.17425000000003 -13.952 C 411.03825 -14.464 411.99825000000004 -14.752 413.08625 -14.752 C 414.14225 -14.752 415.10225 -14.464 415.96625 -13.952 C 416.83025 -13.44 417.50225 -12.704 418.01425 -11.808 C 418.52625 -10.879999999999999 418.78225 -9.856 418.78225 -8.736 z" stroke-linecap="round" />
</g>
		<g transform="matrix(1.13 0 0 1.13 -97.41 77.12)" id="path298428"  >
<path style="stroke: rgb(16,30,25); stroke-width: 0; stroke-dasharray: none; stroke-linecap: butt; stroke-dashoffset: 0; stroke-linejoin: miter; stroke-miterlimit: 2; fill: rgb(16,30,25); fill-rule: nonzero; opacity: 1;" vector-effect="non-scaling-stroke"  transform=" translate(-434.71, 8.74)" d="M 443.52225 -8.736 C 443.52225 -10.368 443.10625 -11.904 442.33824999999996 -13.248000000000001 C 441.57025 -14.592 440.51424999999995 -15.680000000000001 439.17024999999995 -16.448 C 437.82624999999996 -17.216 436.35425 -17.632 434.72225 -17.632 C 433.05825 -17.632 431.55424999999997 -17.216 430.21025 -16.448 C 428.86625 -15.68 427.81025 -14.592 427.04224999999997 -13.248000000000001 C 426.27425 -11.904000000000002 425.89025 -10.400000000000002 425.89025 -8.736 C 425.89025 -7.072000000000001 426.24224999999996 -5.5360000000000005 426.94624999999996 -4.192000000000001 C 427.65024999999997 -2.8480000000000008 428.64225 -1.7920000000000011 429.89025 -1.024000000000001 C 431.17024999999995 -0.22400000000000087 432.54625 0.15999999999999903 434.08225 0.15999999999999903 L 434.33824999999996 0.15999999999999903 L 441.98625 0.15999999999999903 C 442.40225 0.15999999999999903 442.75424999999996 -9.71445146547012e-16 443.07425 -0.288000000000001 C 443.36225 -0.576000000000001 443.52225 -0.928000000000001 443.52225 -1.376000000000001 L 443.52225 -1.6 Z M 429.76225 -5.664000000000001 C 429.25025 -6.5600000000000005 429.02625 -7.5840000000000005 429.02625 -8.736 C 429.02625 -9.856000000000002 429.25025 -10.88 429.76225 -11.808 C 430.27425 -12.704 430.94625 -13.44 431.81025 -13.952 C 432.67425 -14.464 433.63425 -14.752 434.72225 -14.752 C 435.77824999999996 -14.752 436.73825 -14.464 437.60224999999997 -13.952 C 438.46624999999995 -13.44 439.13824999999997 -12.704 439.65024999999997 -11.808 C 440.13025 -10.879999999999999 440.38624999999996 -9.856 440.38624999999996 -8.736 C 440.38624999999996 -7.5840000000000005 440.13025 -6.5600000000000005 439.65024999999997 -5.664000000000001 C 439.13824999999997 -4.768000000000001 438.46624999999995 -4.032000000000001 437.60224999999997 -3.5200000000000005 C 436.73825 -3.0080000000000005 435.77824999999996 -2.7520000000000007 434.72225 -2.7520000000000007 C 433.63424999999995 -2.7520000000000007 432.67425 -3.008000000000001 431.81025 -3.5200000000000005 C 430.94625 -4.032 430.27425 -4.768000000000001 429.76225 -5.664000000000001 z" stroke-linecap="round" />
</g>
		<g transform="matrix(1.13 0 0 1.13 -72.88 77.1)" id="path298430"  >
<path style="stroke: rgb(16,30,25); stroke-width: 0; stroke-dasharray: none; stroke-linecap: butt; stroke-dashoffset: 0; stroke-linejoin: miter; stroke-miterlimit: 2; fill: rgb(16,30,25); fill-rule: nonzero; opacity: 1;" vector-effect="non-scaling-stroke"  transform=" translate(-454.41, 8.75)" d="M 461.53125 -1.504 C 461.53125 -2.496 461.01925 -3.008 460.02725 -3.008 L 451.89925 -3.008 L 460.92325 -14.975999999999999 C 461.11525 -15.232 461.21125 -15.552 461.21125 -16 C 461.21125 -16.992 460.69925 -17.504 459.70725 -17.504 L 448.79525 -17.504 C 447.77125 -17.504 447.29125 -16.992 447.29125 -16 C 447.29125 -14.975999999999999 447.77125 -14.496 448.79525 -14.496 L 456.95525000000004 -14.496 L 447.89925000000005 -2.5280000000000005 C 447.70725000000004 -2.2720000000000002 447.61125000000004 -1.9200000000000004 447.61125000000004 -1.5040000000000004 C 447.61125000000004 -0.4800000000000004 448.09125000000006 -4.440892098500626e-16 449.11525000000006 -4.440892098500626e-16 L 460.02725000000004 -4.440892098500626e-16 C 461.01925000000006 -4.440892098500626e-16 461.53125000000006 -0.4800000000000004 461.53125000000006 -1.5040000000000004 z" stroke-linecap="round" />
</g>
		<g transform="matrix(1.13 0 0 1.13 -55.7 77.1)" id="path298432"  >
<path style="stroke: rgb(16,30,25); stroke-width: 0; stroke-dasharray: none; stroke-linecap: butt; stroke-dashoffset: 0; stroke-linejoin: miter; stroke-miterlimit: 2; fill: rgb(16,30,25); fill-rule: nonzero; opacity: 1;" vector-effect="non-scaling-stroke"  transform=" translate(-467.61, 8.75)" d="M 466.42925 -17.056 C 466.10925000000003 -16.736 465.98125000000005 -16.352 465.98125000000005 -15.872000000000002 L 465.98125000000005 -1.6320000000000014 C 465.98125000000005 -1.1520000000000015 466.10925000000003 -0.7680000000000015 466.42925 -0.4480000000000015 C 466.74925 -0.1280000000000015 467.13325000000003 -1.4988010832439613e-15 467.61325000000005 -1.4988010832439613e-15 C 468.09325000000007 -1.4988010832439613e-15 468.47725 -0.1280000000000015 468.7972500000001 -0.4480000000000015 C 469.0852500000001 -0.7680000000000016 469.24525000000006 -1.1520000000000015 469.24525000000006 -1.6320000000000014 L 469.24525000000006 -15.872000000000002 C 469.24525000000006 -16.352 469.08525000000003 -16.736 468.7972500000001 -17.056 C 468.4772500000001 -17.344 468.09325000000007 -17.504 467.61325000000005 -17.504 C 467.13325000000003 -17.504 466.7492500000001 -17.344 466.42925 -17.056 z" stroke-linecap="round" />
</g>
		<g transform="matrix(1.13 0 0 1.13 -35.75 77.1)" id="path298434"  >
<path style="stroke: rgb(16,30,25); stroke-width: 0; stroke-dasharray: none; stroke-linecap: butt; stroke-dashoffset: 0; stroke-linejoin: miter; stroke-miterlimit: 2; fill: rgb(16,30,25); fill-rule: nonzero; opacity: 1;" vector-effect="non-scaling-stroke"  transform=" translate(-483.27, 8.75)" d="M 487.79675 -16.48 C 486.45275 -17.248 484.94874999999996 -17.632 483.28475 -17.632 C 481.55674999999997 -17.632 480.05274999999995 -17.248 478.70874999999995 -16.48 C 477.36474999999996 -15.712 476.30875 -14.688 475.5727499999999 -13.344000000000001 C 474.80474999999996 -12.000000000000002 474.4527499999999 -10.464000000000002 474.4527499999999 -8.736 C 474.4527499999999 -7.008000000000001 474.8047499999999 -5.5040000000000004 475.5727499999999 -4.160000000000001 C 476.3087499999999 -2.8160000000000007 477.3647499999999 -1.7600000000000011 478.70874999999995 -0.9920000000000009 C 480.05274999999995 -0.22400000000000087 481.55674999999997 0.12799999999999923 483.28475 0.12799999999999923 C 484.98075 0.12799999999999923 486.48474999999996 -0.22400000000000075 487.82874999999996 -0.9920000000000009 C 489.17274999999995 -1.760000000000001 490.19674999999995 -2.8160000000000007 490.96475 -4.160000000000001 C 491.70074999999997 -5.504000000000001 492.08475 -7.008000000000001 492.08475 -8.736 C 492.08475 -10.464 491.70074999999997 -12 490.93275 -13.344000000000001 C 490.16475 -14.688 489.14075 -15.712000000000002 487.79675 -16.48 z M 480.34074999999996 -13.984 C 481.20474999999993 -14.496 482.19674999999995 -14.752 483.28475 -14.752 C 484.37275 -14.752 485.33275 -14.496 486.19674999999995 -13.984 C 487.0607499999999 -13.472 487.73274999999995 -12.736 488.21274999999997 -11.84 C 488.69275 -10.911999999999999 488.94874999999996 -9.888 488.94874999999996 -8.736 C 488.94874999999996 -7.5840000000000005 488.69275 -6.5280000000000005 488.21274999999997 -5.632000000000001 C 487.73274999999995 -4.736000000000001 487.06075 -4.032 486.19674999999995 -3.5200000000000005 C 485.33275 -3.0080000000000005 484.37274999999994 -2.7520000000000007 483.28475 -2.7520000000000007 C 482.19674999999995 -2.7520000000000007 481.20475 -3.008000000000001 480.34074999999996 -3.5200000000000005 C 479.47675 -4.032 478.80474999999996 -4.736000000000001 478.32474999999994 -5.632000000000001 C 477.81274999999994 -6.5280000000000005 477.58874999999995 -7.5840000000000005 477.58874999999995 -8.736 C 477.58874999999995 -9.888 477.81274999999994 -10.912 478.32474999999994 -11.84 C 478.80474999999996 -12.736 479.4767499999999 -13.472 480.34074999999996 -13.984 z" stroke-linecap="round" />
</g>
		<g transform="matrix(1.13 0 0 1.13 3.4 72.87)" id="path298436"  >
<path style="stroke: rgb(16,30,25); stroke-width: 0; stroke-dasharray: none; stroke-linecap: butt; stroke-dashoffset: 0; stroke-linejoin: miter; stroke-miterlimit: 2; fill: rgb(16,30,25); fill-rule: nonzero; opacity: 1;" vector-effect="non-scaling-stroke"  transform=" translate(-515.92, 12.5)" d="M 522.06075 -24.672 C 520.87675 -25.088 519.46875 -25.312 517.86875 -25.312 C 515.56475 -25.312 513.48475 -24.736 511.59675 -23.584 C 509.70875 -22.432 508.23675 -20.896 507.14875 -18.944 C 506.06075 -16.991999999999997 505.51675 -14.847999999999999 505.51675 -12.511999999999999 C 505.51675 -10.143999999999998 506.06075 -7.967999999999999 507.14875 -6.015999999999998 C 508.23675000000003 -4.031999999999998 509.70875 -2.495999999999998 511.59675 -1.3759999999999986 C 513.48475 -0.22399999999999864 515.56475 0.3200000000000014 517.86875 0.3200000000000014 C 520.78075 0.3200000000000014 523.4047499999999 -0.6079999999999987 525.70875 -2.4639999999999986 C 526.0287500000001 -2.7839999999999985 526.22075 -3.1999999999999984 526.22075 -3.647999999999999 C 526.22075 -4.095999999999999 526.06075 -4.479999999999999 525.8047499999999 -4.767999999999999 C 525.5487499999999 -5.055999999999999 525.19675 -5.215999999999999 524.8127499999999 -5.215999999999999 C 524.46075 -5.215999999999999 524.10875 -5.087999999999999 523.7567499999999 -4.831999999999999 C 521.8687499999999 -3.423999999999999 519.9167499999999 -2.719999999999999 517.8687499999999 -2.719999999999999 C 516.2047499999999 -2.719999999999999 514.6687499999998 -3.135999999999999 513.2607499999999 -4.031999999999999 C 511.8527499999999 -4.895999999999999 510.76474999999994 -6.079999999999999 509.93274999999994 -7.584 C 509.10074999999995 -9.056 508.71674999999993 -10.719999999999999 508.71674999999993 -12.512 C 508.71674999999993 -14.272 509.10074999999995 -15.904 509.93274999999994 -17.408 C 510.76474999999994 -18.912000000000003 511.85274999999996 -20.096 513.2607499999999 -20.992 C 514.6687499999999 -21.856 516.2047499999999 -22.304000000000002 517.8687499999999 -22.304000000000002 C 519.1807499999999 -22.304000000000002 520.2687499999998 -22.112000000000002 521.1007499999998 -21.792 C 521.9327499999998 -21.472 522.7647499999998 -20.928 523.6607499999998 -20.192 C 523.9807499999998 -19.904 524.3647499999997 -19.776 524.7807499999998 -19.776 C 525.1647499999998 -19.776 525.5167499999998 -19.904 525.8367499999998 -20.192 C 526.1567499999999 -20.448 526.3167499999998 -20.8 526.3167499999998 -21.248 C 526.3167499999998 -21.504 526.2527499999999 -21.76 526.1887499999998 -21.952 C 526.0927499999998 -22.144000000000002 525.9327499999998 -22.368000000000002 525.6767499999999 -22.560000000000002 C 524.4607499999998 -23.520000000000003 523.2447499999998 -24.224000000000004 522.0607499999999 -24.672000000000004 z" stroke-linecap="round" />
</g>
		<g transform="matrix(1.13 0 0 1.13 29.85 77)" id="path298438"  >
<path style="stroke: rgb(16,30,25); stroke-width: 0; stroke-dasharray: none; stroke-linecap: butt; stroke-dashoffset: 0; stroke-linejoin: miter; stroke-miterlimit: 2; fill: rgb(16,30,25); fill-rule: nonzero; opacity: 1;" vector-effect="non-scaling-stroke"  transform=" translate(-537.32, 8.85)" d="M 542.45575 -17.184 C 541.81575 -17.504 540.91975 -17.696 539.79975 -17.696 C 538.71175 -17.696 537.71975 -17.472 536.79175 -17.056 C 535.8317499999999 -16.608 535.06375 -16.032 534.4237499999999 -15.296000000000001 L 534.4237499999999 -15.904000000000002 C 534.4237499999999 -16.96 533.87975 -17.504 532.8237499999999 -17.504 C 532.31175 -17.504 531.8957499999999 -17.344 531.6397499999999 -17.088 C 531.3517499999999 -16.8 531.2237499999999 -16.416 531.2237499999999 -15.904000000000002 L 531.2237499999999 -1.6 C 531.2237499999999 -1.056 531.3517499999999 -0.6400000000000001 531.6397499999999 -0.3840000000000001 C 531.8957499999999 -0.1280000000000001 532.31175 -1.1102230246251565e-16 532.8237499999999 -1.1102230246251565e-16 C 533.3357499999998 -1.1102230246251565e-16 533.7517499999999 -0.1280000000000001 534.0077499999999 -0.4160000000000001 C 534.2637499999998 -0.6720000000000002 534.4237499999999 -1.088 534.4237499999999 -1.6 L 534.4237499999999 -10.943999999999999 C 534.4237499999999 -12.127999999999998 534.8717499999999 -13.088 535.8317499999999 -13.791999999999998 C 536.7597499999999 -14.495999999999999 538.00775 -14.847999999999999 539.5437499999999 -14.847999999999999 C 540.0557499999999 -14.847999999999999 540.7597499999999 -14.751999999999999 541.62375 -14.623999999999999 C 541.81575 -14.559999999999999 541.97575 -14.559999999999999 542.10375 -14.559999999999999 C 542.74375 -14.559999999999999 543.19175 -14.879999999999999 543.38375 -15.584 C 543.38375 -15.648 543.41575 -15.744 543.41575 -15.904 C 543.41575 -16.416 543.09575 -16.832 542.45575 -17.184 z" stroke-linecap="round" />
</g>
		<g transform="matrix(1.13 0 0 1.13 49.76 77.1)" id="path298440"  >
<path style="stroke: rgb(16,30,25); stroke-width: 0; stroke-dasharray: none; stroke-linecap: butt; stroke-dashoffset: 0; stroke-linejoin: miter; stroke-miterlimit: 2; fill: rgb(16,30,25); fill-rule: nonzero; opacity: 1;" vector-effect="non-scaling-stroke"  transform=" translate(-552.94, 8.75)" d="M 560.83225 -8 C 561.08825 -8.256 561.2482500000001 -8.608 561.2482500000001 -9.024000000000001 C 561.2482500000001 -10.688 560.92825 -12.192 560.2882500000001 -13.504000000000001 C 559.6482500000001 -14.784 558.7202500000001 -15.808000000000002 557.5362500000001 -16.544 C 556.3202500000001 -17.248 554.9122500000001 -17.632 553.2802500000001 -17.632 C 551.6162500000002 -17.632 550.1122500000001 -17.248 548.8002500000001 -16.48 C 547.4882500000001 -15.712 546.4642500000001 -14.656 545.7282500000001 -13.312000000000001 C 544.9922500000001 -11.968000000000002 544.6402500000002 -10.432000000000002 544.6402500000002 -8.736 C 544.6402500000002 -7.008000000000001 545.0242500000002 -5.5040000000000004 545.7922500000002 -4.160000000000001 C 546.5602500000002 -2.8160000000000007 547.6482500000002 -1.7600000000000011 549.0562500000002 -0.9920000000000009 C 550.4322500000002 -0.22400000000000087 552.0002500000002 0.12799999999999923 553.7602500000002 0.12799999999999923 C 554.7202500000002 0.12799999999999923 555.7442500000002 -0.03200000000000078 556.8322500000002 -0.4160000000000008 C 557.9202500000001 -0.7680000000000008 558.8162500000002 -1.2480000000000007 559.5522500000002 -1.8240000000000007 C 559.8722500000002 -2.080000000000001 560.0642500000001 -2.400000000000001 560.0642500000001 -2.7840000000000007 C 560.0642500000001 -3.1680000000000006 559.8722500000001 -3.5520000000000005 559.4882500000001 -3.8720000000000008 C 559.2322500000001 -4.064000000000001 558.9122500000001 -4.192000000000001 558.5282500000001 -4.192000000000001 C 558.11225 -4.192000000000001 557.76025 -4.064000000000001 557.47225 -3.840000000000001 C 557.02425 -3.4880000000000013 556.44825 -3.200000000000001 555.7442500000001 -2.9760000000000013 C 555.0402500000001 -2.7200000000000015 554.40025 -2.6240000000000014 553.76025 -2.6240000000000014 C 552.1282500000001 -2.6240000000000014 550.75225 -3.0720000000000014 549.63225 -4.000000000000002 C 548.51225 -4.896000000000002 547.84025 -6.112000000000002 547.61625 -7.616000000000001 L 559.77625 -7.616000000000001 C 560.1922500000001 -7.616000000000001 560.54425 -7.7440000000000015 560.83225 -8.000000000000002 z M 549.47225 -13.6 C 550.4322500000001 -14.432 551.71225 -14.879999999999999 553.28025 -14.879999999999999 C 554.68825 -14.879999999999999 555.80825 -14.431999999999999 556.70425 -13.6 C 557.56825 -12.735999999999999 558.11225 -11.584 558.30425 -10.176 L 547.6482500000001 -10.176 C 547.90425 -11.584 548.5122500000001 -12.736 549.47225 -13.6 z" stroke-linecap="round" />
</g>
		<g transform="matrix(1.13 0 0 1.13 74.35 77.12)" id="path298442"  >
<path style="stroke: rgb(16,30,25); stroke-width: 0; stroke-dasharray: none; stroke-linecap: butt; stroke-dashoffset: 0; stroke-linejoin: miter; stroke-miterlimit: 2; fill: rgb(16,30,25); fill-rule: nonzero; opacity: 1;" vector-effect="non-scaling-stroke"  transform=" translate(-572.71, 8.74)" d="M 581.52225 -8.736 C 581.52225 -10.368 581.1062499999999 -11.904 580.33825 -13.248000000000001 C 579.57025 -14.592 578.5142500000001 -15.680000000000001 577.17025 -16.448 C 575.82625 -17.216 574.35425 -17.632 572.72225 -17.632 C 571.05825 -17.632 569.55425 -17.216 568.2102500000001 -16.448 C 566.86625 -15.68 565.8102500000001 -14.592 565.0422500000001 -13.248000000000001 C 564.27425 -11.904000000000002 563.89025 -10.400000000000002 563.89025 -8.736 C 563.89025 -7.072000000000001 564.24225 -5.5360000000000005 564.9462500000001 -4.192000000000001 C 565.65025 -2.8480000000000008 566.6422500000001 -1.7920000000000011 567.89025 -1.024000000000001 C 569.17025 -0.22400000000000087 570.54625 0.15999999999999903 572.08225 0.15999999999999903 L 572.33825 0.15999999999999903 L 579.98625 0.15999999999999903 C 580.4022500000001 0.15999999999999903 580.7542500000001 -9.71445146547012e-16 581.07425 -0.288000000000001 C 581.36225 -0.576000000000001 581.52225 -0.928000000000001 581.52225 -1.376000000000001 L 581.52225 -1.6 Z M 567.76225 -5.664000000000001 C 567.25025 -6.5600000000000005 567.02625 -7.5840000000000005 567.02625 -8.736 C 567.02625 -9.856000000000002 567.25025 -10.88 567.76225 -11.808 C 568.2742499999999 -12.704 568.94625 -13.44 569.81025 -13.952 C 570.67425 -14.464 571.63425 -14.752 572.72225 -14.752 C 573.7782500000001 -14.752 574.73825 -14.464 575.60225 -13.952 C 576.4662500000001 -13.44 577.13825 -12.704 577.65025 -11.808 C 578.13025 -10.879999999999999 578.38625 -9.856 578.38625 -8.736 C 578.38625 -7.5840000000000005 578.13025 -6.5600000000000005 577.65025 -5.664000000000001 C 577.1382500000001 -4.768000000000001 576.4662500000001 -4.032000000000001 575.60225 -3.5200000000000005 C 574.73825 -3.0080000000000005 573.7782500000001 -2.7520000000000007 572.72225 -2.7520000000000007 C 571.6342500000001 -2.7520000000000007 570.67425 -3.008000000000001 569.81025 -3.5200000000000005 C 568.94625 -4.032 568.27425 -4.768000000000001 567.76225 -5.664000000000001 z" stroke-linecap="round" />
</g>
		<g transform="matrix(1.13 0 0 1.13 97.51 73.96)" id="path298444"  >
<path style="stroke: rgb(16,30,25); stroke-width: 0; stroke-dasharray: none; stroke-linecap: butt; stroke-dashoffset: 0; stroke-linejoin: miter; stroke-miterlimit: 2; fill: rgb(16,30,25); fill-rule: nonzero; opacity: 1;" vector-effect="non-scaling-stroke"  transform=" translate(-591.2, 11.54)" d="M 587.14725 -16.864 L 587.14725 -14.112000000000002 L 587.14725 -6.208000000000002 C 587.14725 -5.024000000000002 587.37125 -3.9680000000000017 587.88325 -3.040000000000002 C 588.36325 -2.080000000000002 589.03525 -1.3440000000000019 589.8992499999999 -0.8000000000000016 C 590.76325 -0.25600000000000156 591.7232499999999 -1.5543122344752192e-15 592.7792499999999 -1.5543122344752192e-15 L 593.35525 -1.5543122344752192e-15 C 593.8992499999999 -1.5543122344752192e-15 594.3472499999999 -0.12800000000000156 594.69925 -0.44800000000000156 C 595.05125 -0.7360000000000015 595.24325 -1.1200000000000017 595.24325 -1.6000000000000014 C 595.24325 -2.0480000000000014 595.08325 -2.4320000000000013 594.8272499999999 -2.7520000000000016 C 594.57125 -3.0400000000000014 594.2512499999999 -3.2000000000000015 593.8672499999999 -3.2000000000000015 L 592.7792499999999 -3.2000000000000015 C 592.07525 -3.2000000000000015 591.49925 -3.4880000000000013 591.05125 -4.064000000000002 C 590.57125 -4.6400000000000015 590.34725 -5.344000000000002 590.34725 -6.208000000000002 L 590.34725 -14.112000000000002 L 593.0672500000001 -14.112000000000002 C 593.51525 -14.112000000000002 593.86725 -14.240000000000002 594.15525 -14.496000000000002 C 594.41125 -14.752000000000002 594.5712500000001 -15.072000000000003 594.5712500000001 -15.456000000000003 C 594.5712500000001 -15.872000000000003 594.4112500000001 -16.224000000000004 594.15525 -16.480000000000004 C 593.86725 -16.736000000000004 593.51525 -16.864000000000004 593.0672500000001 -16.864000000000004 L 590.34725 -16.864000000000004 L 590.34725 -21.472000000000005 C 590.34725 -21.920000000000005 590.1872500000001 -22.304000000000006 589.89925 -22.624000000000006 C 589.57925 -22.912000000000006 589.1952500000001 -23.072000000000006 588.74725 -23.072000000000006 C 588.26725 -23.072000000000006 587.88325 -22.912000000000006 587.59525 -22.624000000000006 C 587.2752499999999 -22.304000000000006 587.14725 -21.920000000000005 587.14725 -21.472000000000005 z" stroke-linecap="round" />
</g>
		<g transform="matrix(1.13 0 0 1.13 111.04 77.1)" id="path298446"  >
<path style="stroke: rgb(16,30,25); stroke-width: 0; stroke-dasharray: none; stroke-linecap: butt; stroke-dashoffset: 0; stroke-linejoin: miter; stroke-miterlimit: 2; fill: rgb(16,30,25); fill-rule: nonzero; opacity: 1;" vector-effect="non-scaling-stroke"  transform=" translate(-601.18, 8.75)" d="M 599.99175 -17.056 C 599.67175 -16.736 599.54375 -16.352 599.54375 -15.872000000000002 L 599.54375 -1.6320000000000014 C 599.54375 -1.1520000000000015 599.6717500000001 -0.7680000000000015 599.99175 -0.4480000000000015 C 600.3117500000001 -0.1280000000000015 600.69575 -1.4988010832439613e-15 601.17575 -1.4988010832439613e-15 C 601.65575 -1.4988010832439613e-15 602.03975 -0.1280000000000015 602.35975 -0.4480000000000015 C 602.64775 -0.7680000000000016 602.8077499999999 -1.1520000000000015 602.8077499999999 -1.6320000000000014 L 602.8077499999999 -15.872000000000002 C 602.8077499999999 -16.352 602.64775 -16.736 602.35975 -17.056 C 602.0397499999999 -17.344 601.65575 -17.504 601.17575 -17.504 C 600.69575 -17.504 600.31175 -17.344 599.99175 -17.056 z" stroke-linecap="round" />
</g>
		<g transform="matrix(1.13 0 0 1.13 128.72 77.12)" id="path298448"  >
<path style="stroke: rgb(16,30,25); stroke-width: 0; stroke-dasharray: none; stroke-linecap: butt; stroke-dashoffset: 0; stroke-linejoin: miter; stroke-miterlimit: 2; fill: rgb(16,30,25); fill-rule: nonzero; opacity: 1;" vector-effect="non-scaling-stroke"  transform=" translate(-614.82, 8.74)" d="M 623.02325 -16.736 C 622.86325 -16.96 622.63925 -17.152 622.38325 -17.28 C 622.1592499999999 -17.376 621.90325 -17.44 621.64725 -17.44 C 621.35925 -17.44 621.10325 -17.344 620.84725 -17.216 C 620.5912500000001 -17.088 620.43125 -16.896 620.30325 -16.64 L 614.79925 -4.640000000000001 L 609.23125 -16.64 C 609.10325 -16.896 608.91125 -17.088 608.6872500000001 -17.216 C 608.4312500000001 -17.344 608.20725 -17.44 607.9512500000001 -17.44 C 607.6952500000001 -17.44 607.47125 -17.376 607.27925 -17.28 C 606.6712500000001 -16.96 606.3832500000001 -16.544 606.3832500000001 -15.968000000000002 C 606.3832500000001 -15.744000000000002 606.4152500000001 -15.552000000000001 606.5112500000001 -15.392000000000001 L 613.2952500000001 -1.088000000000001 C 613.4872500000001 -0.704000000000001 613.6792500000001 -0.4160000000000009 613.9352500000001 -0.256000000000001 C 614.1592500000002 -0.096000000000001 614.44725 -0.032000000000001 614.8312500000001 -0.032000000000001 C 615.47125 -0.032000000000001 615.9832500000001 -0.384000000000001 616.30325 -1.088000000000001 L 623.08725 -15.392000000000001 C 623.18325 -15.584000000000001 623.24725 -15.808000000000002 623.24725 -16 C 623.24725 -16.256 623.15125 -16.512 623.02325 -16.736 z" stroke-linecap="round" />
</g>
		<g transform="matrix(1.13 0 0 1.13 152.39 77.1)" id="path298450"  >
<path style="stroke: rgb(16,30,25); stroke-width: 0; stroke-dasharray: none; stroke-linecap: butt; stroke-dashoffset: 0; stroke-linejoin: miter; stroke-miterlimit: 2; fill: rgb(16,30,25); fill-rule: nonzero; opacity: 1;" vector-effect="non-scaling-stroke"  transform=" translate(-633.77, 8.75)" d="M 638.29675 -16.48 C 636.9527499999999 -17.248 635.44875 -17.632 633.78475 -17.632 C 632.0567500000001 -17.632 630.5527500000001 -17.248 629.20875 -16.48 C 627.86475 -15.712 626.80875 -14.688 626.07275 -13.344000000000001 C 625.30475 -12.000000000000002 624.95275 -10.464000000000002 624.95275 -8.736 C 624.95275 -7.008000000000001 625.30475 -5.5040000000000004 626.07275 -4.160000000000001 C 626.80875 -2.8160000000000007 627.8647500000001 -1.7600000000000011 629.20875 -0.9920000000000009 C 630.5527500000001 -0.22400000000000087 632.05675 0.12799999999999923 633.78475 0.12799999999999923 C 635.4807500000001 0.12799999999999923 636.9847500000001 -0.22400000000000075 638.32875 -0.9920000000000009 C 639.6727500000001 -1.760000000000001 640.6967500000001 -2.8160000000000007 641.46475 -4.160000000000001 C 642.20075 -5.504000000000001 642.58475 -7.008000000000001 642.58475 -8.736 C 642.58475 -10.464 642.20075 -12 641.4327499999999 -13.344000000000001 C 640.6647499999999 -14.688 639.6407499999999 -15.712000000000002 638.29675 -16.48 z M 630.84075 -13.984 C 631.70475 -14.496 632.69675 -14.752 633.7847499999999 -14.752 C 634.8727499999999 -14.752 635.8327499999999 -14.496 636.69675 -13.984 C 637.56075 -13.472 638.2327499999999 -12.736 638.7127499999999 -11.84 C 639.1927499999999 -10.911999999999999 639.4487499999999 -9.888 639.4487499999999 -8.736 C 639.4487499999999 -7.5840000000000005 639.1927499999999 -6.5280000000000005 638.7127499999999 -5.632000000000001 C 638.2327499999999 -4.736000000000001 637.5607499999999 -4.032 636.69675 -3.5200000000000005 C 635.8327499999999 -3.0080000000000005 634.87275 -2.7520000000000007 633.7847499999999 -2.7520000000000007 C 632.69675 -2.7520000000000007 631.7047499999999 -3.008000000000001 630.84075 -3.5200000000000005 C 629.9767499999999 -4.032 629.30475 -4.736000000000001 628.82475 -5.632000000000001 C 628.31275 -6.5280000000000005 628.08875 -7.5840000000000005 628.08875 -8.736 C 628.08875 -9.888 628.31275 -10.912 628.82475 -11.84 C 629.30475 -12.736 629.97675 -13.472 630.84075 -13.984 z" stroke-linecap="round" />
</g>
		<g transform="matrix(2.75 0 0 2.75 -180.33 -29.71)"  >
<path style="stroke: rgb(16,30,25); stroke-width: 0; stroke-dasharray: none; stroke-linecap: butt; stroke-dashoffset: 0; stroke-linejoin: miter; stroke-miterlimit: 2; fill: rgb(16,30,25); fill-rule: nonzero; opacity: 1;" vector-effect="non-scaling-stroke"  transform=" translate(-101.13, -98.41)" d="M 91.57789 98.55777 L 91.57789 116.34329000000001 C 91.57789 119.65561000000001 88.98559999999999 122.31982 85.74537 122.31982 C 82.43311 122.31982 79.76880999999999 119.6556 79.76880999999999 116.34329000000001 L 79.76880999999999 98.55777 C 79.76880999999999 85.30862 90.56983999999999 74.50769 103.81885999999999 74.50769 C 110.37158999999998 74.50769 116.41993 77.09991 120.81250999999999 81.49228 C 123.04468999999999 83.8685 123.04468999999999 87.46880999999999 120.81250999999999 89.845 C 118.43628999999999 92.07721 114.83594999999998 92.07721 112.45973 89.91702 C 110.29956999999999 87.61282 107.13136 86.31671 103.81886 86.31671 C 97.12233 86.31671 91.57789 91.78918 91.57789 98.55777 Z" stroke-linecap="round" />
</g>
		<g transform="matrix(2.75 0 0 2.75 -37.91 -29.02)"  >
<path style="stroke: rgb(16,30,25); stroke-width: 0; stroke-dasharray: none; stroke-linecap: butt; stroke-dashoffset: 0; stroke-linejoin: miter; stroke-miterlimit: 2; fill: rgb(16,30,25); fill-rule: nonzero; opacity: 1;" vector-effect="non-scaling-stroke"  transform=" translate(-100, -98.67)" d="M 75.88038 98.55777 C 75.88038 85.30862 86.89747 74.50766 100.07472 74.50766 C 113.32374 74.50766 124.12477 85.30862 124.12477 98.55777 C 124.12477 112.02292 113.32374 122.82388 100.07472 122.82388 C 86.89747 122.82388 75.88038 112.02292 75.88038 98.55777 Z M 100.07472 110.94284 C 106.77125 110.94284 112.24367 105.47037 112.24367 98.55777 C 112.24367 91.78915 106.77126 86.31674000000001 100.07472 86.31674000000001 C 93.30592 86.31674000000001 87.68947 91.78915 87.68947 98.55777 C 87.68947 105.47037 93.30593 110.94284 100.07472 110.94284 Z" stroke-linecap="round" />
</g>
		<g transform="matrix(2.75 0 0 2.75 113.38 -27.46)"  >
<path style="stroke: rgb(16,30,25); stroke-width: 0; stroke-dasharray: none; stroke-linecap: butt; stroke-dashoffset: 0; stroke-linejoin: miter; stroke-miterlimit: 2; fill: rgb(16,30,25); fill-rule: nonzero; opacity: 1;" vector-effect="non-scaling-stroke"  transform=" translate(-99.97, -99.23)" d="M 119.06984 75.15564 C 116.7632 75.15564 114.74464 76.38123 113.66335 78.39978 L 99.92873 104.31433000000001 L 86.27028 78.39978000000002 C 85.18898 76.38123000000002 83.17043 75.15564000000002 80.86379 75.15564000000002 C 77.47560999999999 75.15564000000002 74.73634999999999 77.89490000000002 74.73634999999999 81.21130000000002 C 74.73634999999999 82.22009000000003 75.02467999999999 83.22937000000002 75.45729999999999 84.02234000000003 L 94.48830999999998 120.06580000000002 C 94.51076999999998 120.10779000000002 94.54055999999999 120.14539000000002 94.56398999999999 120.18689000000002 C 95.17482999999999 121.30164000000002 96.13844999999999 122.18591000000002 97.30667 122.72546000000003 C 97.36478 122.75232000000003 97.4219 122.78064000000002 97.48074 122.80554000000002 C 97.66385 122.88513000000002 97.85329999999999 122.95251000000002 98.04544 123.01404000000002 C 98.18191 123.05701000000002 98.32156 123.09216000000002 98.46218999999999 123.12634000000003 C 98.58449999999999 123.15564000000003 98.70730999999999 123.18445000000003 98.83279999999999 123.20642000000002 C 98.95608999999999 123.22839000000002 99.08108999999999 123.24597000000003 99.20682 123.26062000000002 C 99.38552999999999 123.28113000000002 99.5662 123.29529000000002 99.74954 123.29968000000002 C 99.79861 123.30066000000002 99.84523999999999 123.30993000000002 99.89479999999999 123.30993000000002 C 99.90651999999999 123.30993000000002 99.91774999999998 123.30798000000003 99.92947 123.30798000000003 C 99.94192 123.30798000000003 99.95412999999999 123.30993000000002 99.96682 123.30993000000002 C 100.0508 123.30993000000002 100.13161 123.29675000000002 100.21487 123.29333000000003 C 100.33035000000001 123.28894000000003 100.44485 123.28112000000003 100.55886000000001 123.27087000000003 C 102.61404000000002 123.07946000000003 104.3799 121.91491000000003 105.30129000000001 120.13806000000002 L 124.47658000000001 84.02234000000001 C 124.90895000000002 83.22937000000002 125.19728 82.22009000000001 125.19728 81.21130000000001 C 125.19728 77.89489 122.45802 75.15564 119.06984 75.15564 Z" stroke-linecap="round" />
</g>
		<g transform="matrix(2.75 0 0 2.75 148.02 -27.51)"  >
<path style="stroke: rgb(76,87,84); stroke-width: 0; stroke-dasharray: none; stroke-linecap: butt; stroke-dashoffset: 0; stroke-linejoin: miter; stroke-miterlimit: 2; fill: rgb(76,87,84); fill-rule: nonzero; opacity: 1;" vector-effect="non-scaling-stroke"  transform=" translate(-112.56, -99.21)" d="M 119.06984 75.15564 C 116.7632 75.15564 114.74464 76.38123 113.66335 78.39978 L 99.92873 104.31433000000001 L 105.22927 114.37097000000001 C 105.73391 115.23620000000001 105.95022 116.17322000000001 105.95022 117.18249000000002 C 105.95022 120.34118000000001 103.56838 122.93395000000001 100.55886 123.27087000000002 C 102.61403999999999 123.07946000000001 104.37989999999999 121.91491000000002 105.30129 120.13806000000001 L 124.47658 84.02234000000001 C 124.90895 83.22937000000002 125.19727999999999 82.22009000000001 125.19727999999999 81.21130000000001 C 125.19727999999999 77.89489 122.45801999999999 75.15564 119.06984 75.15564 Z" stroke-linecap="round" />
</g>
		<g transform="matrix(2.75 0 0 2.75 113.18 12.63)"  >
<path style="stroke: rgb(46,58,54); stroke-width: 0; stroke-dasharray: none; stroke-linecap: butt; stroke-dashoffset: 0; stroke-linejoin: miter; stroke-miterlimit: 2; fill: rgb(46,58,54); fill-rule: nonzero; opacity: 1;" vector-effect="non-scaling-stroke"  transform=" translate(-99.89, -113.81)" d="M 105.95021 117.1825 C 105.95021 116.17322 105.7339 115.23621 105.22926 114.37098 L 99.92872 104.31434 L 94.56031 114.44325 C 94.12769 115.308 93.83936 116.2455 93.83936 117.32655000000001 C 93.83936 118.37391000000001 94.1023 119.34413 94.56397 120.18690000000001 C 95.1814 121.27137 96.13696999999999 122.17469000000001 97.30664999999999 122.72547 C 97.36475999999999 122.75233 97.42187999999999 122.78065 97.48071999999999 122.80555 C 97.66382999999999 122.88513999999999 97.85327999999998 122.95251999999999 98.04542 123.01405 C 98.18189 123.05702 98.32154 123.09217 98.46216999999999 123.12635 C 98.58447999999999 123.15565000000001 98.70728999999999 123.18446 98.83277999999999 123.20643 C 98.95606999999998 123.2284 99.08106999999998 123.24598 99.20679999999999 123.26062999999999 C 99.38550999999998 123.28114 99.56617999999999 123.2953 99.74951999999999 123.29969 C 99.80981999999999 123.30163999999999 99.86865999999999 123.30799 99.92944999999999 123.30799 C 100.02563999999998 123.3075 100.11963999999999 123.29871 100.21484999999998 123.29334 C 100.33032999999999 123.28895 100.44482999999998 123.28113 100.55883999999999 123.27088 C 103.56835999999998 122.93397 105.9502 120.34119000000001 105.9502 117.1825 Z" stroke-linecap="round" />
</g>
		<g transform="matrix(2.75 0 0 2.75 222.84 -29.12)"  >
<path style="stroke: rgb(16,30,25); stroke-width: 0; stroke-dasharray: none; stroke-linecap: butt; stroke-dashoffset: 0; stroke-linejoin: miter; stroke-miterlimit: 2; fill: rgb(16,30,25); fill-rule: nonzero; opacity: 1;" vector-effect="non-scaling-stroke"  transform=" translate(-99.97, -98.63)" d="M 94.0608 116.34329 L 94.0608 80.91623 C 94.0608 77.60397 96.72511 74.93973 100.03736 74.93973 C 103.27759 74.93973 105.86988000000001 77.60397999999999 105.86988000000001 80.91623 L 105.86988000000001 116.34329 C 105.86988000000001 119.65561 103.27759 122.31979 100.03736 122.31979 C 96.72510000000001 122.31979 94.0608 119.65561 94.0608 116.34329 Z" stroke-linecap="round" />
</g>
		<g transform="matrix(1 0 0 1 0 0)" id="icon"  >
</g>
</g>
</g>
</svg>